<svg xmlns="http://www.w3.org/2000/svg" xmlns:xlink="http://www.w3.org/1999/xlink" viewBox="0 0 91.17 92"><defs><style>.cls-1{isolation:isolate;}.cls-2{fill:#8bbde7;}.cls-3{opacity:0.4;mix-blend-mode:multiply;fill:url(#linear-gradient);}.cls-4{fill:#0e4580;}.cls-5{fill:#fff;}.cls-6{fill:#ef794c;}.cls-7{fill:#f3c144;}.cls-8{fill:#43bcd0;}</style><linearGradient id="linear-gradient" x1="25.6" y1="31.77" x2="77.43" y2="77.46" gradientUnits="userSpaceOnUse"><stop offset="0" stop-color="#686868"/><stop offset="0.96" stop-color="#fff"/></linearGradient></defs><title>cloud</title><g class="cls-1"><g id="Layer_1" data-name="Layer 1"><path class="cls-2" d="M89.8,46.3a45.62,45.62,0,0,1-1.17,10.12,44.25,44.25,0,0,1-39.72,34c-1.1.08-2.22.12-3.34.12-1.29,0-2.57-.06-3.84-.17A44.23,44.23,0,1,1,89.8,46.3Z"/><path class="cls-3" d="M89.44,51.87a42.82,42.82,0,0,1-.81,4.55,44.25,44.25,0,0,1-39.72,34C34.8,76.31,15.63,57.12,15.32,56.75a11.22,11.22,0,0,1-1.43-1.41,11.87,11.87,0,0,1-.83-1c-.13-.19-.25-.38-.37-.57a11.83,11.83,0,0,1-1.19-2.49c-.06-.18-.12-.36-.17-.54a.57.57,0,0,1,0-.12c0-.2-.11-.4-.15-.6s-.1-.45-.14-.68-.07-.45-.1-.67v0c0-.16,0-.31,0-.46,0-.31,0-.64,0-1A12.49,12.49,0,0,1,23.29,34.69a12.14,12.14,0,0,1,1.8.14,9.84,9.84,0,0,1,12.52-6.62h0a11.57,11.57,0,0,1,1.15.47l.56.29a16.24,16.24,0,0,1,12.18-5.44c.37,0,.74,0,1.11,0h.08c.31,0,.61,0,.92.1l.25,0a6.31,6.31,0,0,1,.73.13,2.5,2.5,0,0,1,.4.07,13.55,13.55,0,0,1,1.79.51l.56.2.31.12.67.3a17.38,17.38,0,0,1,1.54.81c.5.3,1,.63,1.44,1l.69.54c.44.37.87.77,1.28,1.19l.52.56.07.08a16.47,16.47,0,0,1,1.61,1.62,16.37,16.37,0,0,1,1.61,1.61.56.56,0,0,0,.12.1c.37.09.74.19,1.09.31l.48.16.07,0,.49.2.5.22q.43.19.84.42a2,2,0,0,1,.25.14l.35.21A13.63,13.63,0,0,1,73,35.49c.19.16.38.34.56.51a.46.46,0,0,1,.1.1l.22.22c.22.23.43.46.63.7a0,0,0,0,1,0,0l.06.06C75.36,37.81,89.4,51.86,89.44,51.87Z"/><path class="cls-4" d="M74.6,37.09,74.54,37a0,0,0,0,0,0,0,8.49,8.49,0,0,0-.63-.7l-.22-.22a.46.46,0,0,0-.1-.1c-.18-.17-.37-.35-.56-.51a12.91,12.91,0,0,0-1.74-1.28L70.93,34a2,2,0,0,0-.25-.14q-.4-.23-.84-.42l-.5-.22-.49-.2-.07,0-.48-.16c-.35-.12-.72-.22-1.09-.31s-.8-.17-1.21-.23a16.18,16.18,0,0,0-2.13-3.1l-.07-.08-.52-.56A11.93,11.93,0,0,0,62,27.36l-.69-.54a12.57,12.57,0,0,0-1.44-1A11.89,11.89,0,0,0,58.33,25l-.67-.3-.31-.12-.56-.2A13.55,13.55,0,0,0,55,23.91a2.5,2.5,0,0,0-.4-.07,6.31,6.31,0,0,0-.73-.13l-.25,0c-.31,0-.61-.08-.92-.1h-.08c-.37,0-.74,0-1.11,0A16.24,16.24,0,0,0,39.33,29l-.56-.29a9.61,9.61,0,0,0-1.15-.47h0a9.7,9.7,0,0,0-3.08-.5,9.92,9.92,0,0,0-9.44,7.12,12.14,12.14,0,0,0-1.8-.14A12.49,12.49,0,0,0,10.82,47.17c0,.32,0,.65,0,1,0,.15,0,.3,0,.46v0c0,.22.06.45.1.67s.09.46.14.68.1.4.15.6a.57.57,0,0,0,0,.12c0,.18.11.36.17.54a11.83,11.83,0,0,0,1.19,2.49c.12.19.24.38.37.57a11.87,11.87,0,0,0,.83,1,11.22,11.22,0,0,0,1.43,1.41,12.42,12.42,0,0,0,8,2.89H64A13.77,13.77,0,0,0,74.6,37.09ZM64,57.16H23.29a10,10,0,1,1,2.45-19.67,1.26,1.26,0,0,0,1-.17,1.31,1.31,0,0,0,.54-.85,7.36,7.36,0,0,1,7.25-6.27,7.19,7.19,0,0,1,4.31,1.41,1.26,1.26,0,0,0,1.72-.24A13.77,13.77,0,0,1,51.51,26a13.94,13.94,0,0,1,12.55,8,1.25,1.25,0,0,0,1,.7A11.27,11.27,0,0,1,64,57.16Z"/><path class="cls-5" d="M65.07,34.68a1.25,1.25,0,0,1-1-.7,13.94,13.94,0,0,0-12.55-8,13.77,13.77,0,0,0-10.95,5.36,1.26,1.26,0,0,1-1.72.24,7.19,7.19,0,0,0-4.31-1.41,7.36,7.36,0,0,0-7.25,6.27,1.31,1.31,0,0,1-.54.85,1.26,1.26,0,0,1-1,.17,10,10,0,1,0-2.45,19.67H64a11.27,11.27,0,0,0,1.06-22.48Z"/><path class="cls-6" d="M42.55,44.52H41.29a4.41,4.41,0,0,0-.4-1l.88-.89a.49.49,0,0,0,0-.69l-1.23-1.24a.5.5,0,0,0-.7,0l-.88.89a4.24,4.24,0,0,0-1-.41V39.94a.48.48,0,0,0-.49-.48H35.73a.47.47,0,0,0-.48.48V41.2a4.28,4.28,0,0,0-1,.41l-.89-.89a.49.49,0,0,0-.69,0L31.45,42a.47.47,0,0,0,0,.69l.88.89a4.51,4.51,0,0,0-.4,1H30.67a.49.49,0,0,0-.49.49v1.75a.49.49,0,0,0,.49.49h1.25a5.7,5.7,0,0,0,.41,1l-.88.89a.47.47,0,0,0,0,.69L32.68,51a.49.49,0,0,0,.69,0l.89-.89a4.86,4.86,0,0,0,1,.41v1.25a.48.48,0,0,0,.48.49h1.75a.49.49,0,0,0,.49-.49V50.57a5.06,5.06,0,0,0,1-.41l.89.89a.5.5,0,0,0,.7,0l1.23-1.24a.49.49,0,0,0,0-.69l-.88-.89a4.87,4.87,0,0,0,.4-1h1.26a.49.49,0,0,0,.49-.49V45A.49.49,0,0,0,42.55,44.52Zm-5.94,4.31a2.94,2.94,0,1,1,2.94-3A3,3,0,0,1,36.61,48.83Z"/><path class="cls-7" d="M57.76,36.19H56.14a7.15,7.15,0,0,0-.54-1.31l1.14-1.15a.65.65,0,0,0,0-.91L55.12,31.2a.65.65,0,0,0-.91,0l-1.15,1.14a7.29,7.29,0,0,0-1.31-.54V30.18a.64.64,0,0,0-.64-.64h-2.3a.64.64,0,0,0-.65.64V31.8a6.59,6.59,0,0,0-1.31.54L45.71,31.2a.65.65,0,0,0-.91,0l-1.63,1.62a.65.65,0,0,0,0,.91l1.15,1.15a6.56,6.56,0,0,0-.55,1.31H42.15a.64.64,0,0,0-.64.64v2.3a.65.65,0,0,0,.64.65h1.62a6.55,6.55,0,0,0,.55,1.31l-1.15,1.14a.64.64,0,0,0,0,.91l1.63,1.63a.65.65,0,0,0,.91,0l1.14-1.15a6.61,6.61,0,0,0,1.31.55v1.62a.65.65,0,0,0,.65.64h2.3a.64.64,0,0,0,.64-.64V44.17a6.61,6.61,0,0,0,1.31-.55l1.15,1.15a.65.65,0,0,0,.91,0l1.62-1.63a.64.64,0,0,0,0-.91L55.6,41.09a7.14,7.14,0,0,0,.54-1.31h1.62a.64.64,0,0,0,.64-.65v-2.3A.64.64,0,0,0,57.76,36.19ZM50,41.86A3.88,3.88,0,1,1,53.83,38,3.88,3.88,0,0,1,50,41.86Z"/><path class="cls-8" d="M51,51.49l-.83-.34a3.81,3.81,0,0,0,0-.76L51,50a.35.35,0,0,0,.19-.46l-.49-1.15a.35.35,0,0,0-.46-.18l-.82.34a3.38,3.38,0,0,0-.54-.53l.34-.83a.34.34,0,0,0-.19-.45l-1.16-.48a.35.35,0,0,0-.45.2l-.34.82a3.81,3.81,0,0,0-.76,0L46,46.5a.34.34,0,0,0-.46-.18l-1.15.48a.35.35,0,0,0-.19.45l.35.83a3,3,0,0,0-.53.54l-.83-.34a.36.36,0,0,0-.46.19l-.47,1.16a.35.35,0,0,0,.19.45l.83.34a3.29,3.29,0,0,0,0,.76l-.82.34a.36.36,0,0,0-.19.46l.48,1.15a.36.36,0,0,0,.46.19L44,53a3.89,3.89,0,0,0,.54.53l-.34.83a.37.37,0,0,0,.19.46l1.16.47a.36.36,0,0,0,.46-.19l.33-.83a3.3,3.3,0,0,0,.76,0l.35.82a.35.35,0,0,0,.45.19l1.16-.48a.35.35,0,0,0,.18-.46l-.34-.82a4.53,4.53,0,0,0,.53-.54l.83.34a.35.35,0,0,0,.45-.2l.47-1.15A.34.34,0,0,0,51,51.49Zm-3.48,1.23A2.1,2.1,0,1,1,48.65,50,2.11,2.11,0,0,1,47.53,52.72Z"/></g></g></svg>