<svg xmlns="http://www.w3.org/2000/svg" xmlns:xlink="http://www.w3.org/1999/xlink" viewBox="0 0 92.83 90.77"><defs><style>.cls-1{isolation:isolate;}.cls-2{fill:#8bbde7;}.cls-3{opacity:0.4;mix-blend-mode:multiply;fill:url(#linear-gradient);}.cls-4{fill:#055c84;}.cls-5{fill:#fff;}.cls-6{fill:url(#linear-gradient-2);}.cls-7{fill:#1d71b8;}</style><linearGradient id="linear-gradient" x1="21.09" y1="25.51" x2="72" y2="70.39" gradientUnits="userSpaceOnUse"><stop offset="0" stop-color="#686868"/><stop offset="0.96" stop-color="#fff"/></linearGradient><linearGradient id="linear-gradient-2" x1="44.99" y1="39.7" x2="56.34" y2="59.37" gradientTransform="translate(90.02 79.48) rotate(180)" gradientUnits="userSpaceOnUse"><stop offset="0.1" stop-color="#fff"/><stop offset="1" stop-color="#9c9c9c"/></linearGradient></defs><title>laptop</title><g class="cls-1"><g id="Layer_1" data-name="Layer 1"><path class="cls-2" d="M90.49,45.38a44.26,44.26,0,0,1-43,44.22H46.27A44.23,44.23,0,1,1,90.44,43.28C90.47,44,90.49,44.68,90.49,45.38Z"/><path class="cls-3" d="M90.49,45.38a44.26,44.26,0,0,1-43,44.22H46.27a43.82,43.82,0,0,1-5-.29c-11-10.86-21.91-22.81-25.58-26.8a10.43,10.43,0,0,1-1.93-3.08v-.79a1,1,0,0,1,0-.25.18.18,0,0,1,0-.1,1.25,1.25,0,0,1,.13-.32l5.63-.07v-.7c0-.53,0-1.32,0-2.33,0-8.29-.11-30.72-.11-30.72L69.81,22.9a1.39,1.39,0,0,1,.65.16,1,1,0,0,1,.28.18l.09.08.1.12a.84.84,0,0,1,.13.18,1.37,1.37,0,0,1,.2.72s8.89,8.75,19.18,18.94C90.47,44,90.49,44.68,90.49,45.38Z"/><rect class="cls-4" x="19.13" y="22.9" width="52.12" height="32.42" rx="1.44" ry="1.44"/><rect class="cls-5" x="22.31" y="26.68" width="45.41" height="26.12"/><path class="cls-4" d="M76.64,59.45c0,.41-.65.74-1.44.74h-60c-.79,0-1.44-.33-1.44-.74V58c0-.41.64-.75,1.44-.75h60c.79,0,1.44.33,1.44.75Z"/><polygon class="cls-6" points="67.72 26.68 22.31 26.68 22.31 52.8 67.72 26.68"/><rect class="cls-7" x="38.3" y="57.44" width="13.79" height="0.86" rx="0.43" ry="0.43"/></g></g></svg>