<svg xmlns="http://www.w3.org/2000/svg" xmlns:xlink="http://www.w3.org/1999/xlink" version="1.1" id="Layer_1" x="0" y="0" viewBox="0 0 172.3 68.7" xml:space="preserve" enable-background="new 0 0 172.3 68.7">
  <style type="text/css">
    
	.st0{clip-path:url(#SVGID_2_);fill:#FFFFFF;}

  </style>
  <defs>
    <rect id="SVGID_1_" x="-64.2" y="-23.4" width="301.2" height="113.8"/>
  </defs>
  <clipPath id="SVGID_2_">
    <use xlink:href="#SVGID_1_" overflow="visible"/>
  </clipPath>
  <path class="st0" d="M33.9 51.6l-7.3-26.7H34c0 0 3.7 16.2 4.2 19.3h0.1c0.5-3.4 4.6-19.3 4.6-19.3h7.4c0 0 3.7 15.7 4.1 19.2h0.1c0.5-3.4 4.3-19.2 4.3-19.2h7.1l-8 26.7h-7.5c0 0-3.3-16-4.1-19.5h-0.1c-0.8 3.5-4.7 19.5-4.7 19.5H33.9"/>
  <rect x="66.2" y="29.2" class="st0" width="6.9" height="22.3"/>
  <polygon class="st0" points="76.1 24.9 83.1 24.9 83.1 45.7 95.3 45.7 95.3 51.6 76.1 51.6 "/>
  <rect x="96.3" y="29.2" class="st0" width="6.9" height="22.3"/>
  <path class="st0" d="M106.1 36.4c0-2.8-0.1-5.1-0.2-7.1h6l0.3 3.1h0.1c0.9-1.5 3.2-3.6 6.9-3.6 4.6 0 8 3.1 8 9.6v13.2h-6.9V39.2c0-2.9-1-4.8-3.5-4.8 -1.9 0-3.1 1.3-3.6 2.6 -0.2 0.5-0.2 1.1-0.2 1.7v12.9h-7V36.4"/>
  <path class="st0" d="M134.8 42.6c0.2 2.9 3.1 4.3 6.3 4.3 2.4 0 4.3-0.3 6.2-1l0.9 4.7c-2.3 1-5.1 1.4-8.1 1.4 -7.6 0-11.9-4.4-11.9-11.4 0-5.7 3.6-11.9 11.3-11.9 7.2 0 10 5.6 10 11.2 0 1.2-0.1 2.2-0.2 2.8L134.8 42.6M142.9 37.8c0-1.6-0.7-4.5-3.9-4.5 -3 0-4.2 2.7-4.3 4.5H142.9z"/>
  <path class="st0" d="M9.8 32.3C12.1 16.2 48.6 8 91.4 14c13 1.8 25.1 4.8 35.6 8.4 -12-4.8-26.6-8.7-42.7-10.9C40.8 5.4 3.7 13.6 1.4 29.8c-1.8 13 19.3 27.2 50.2 35.5C25.4 56.9 8.2 44.1 9.8 32.3"/>
  <path class="st0" d="M125.5 65.6c22.1-1.4 37.7-7.9 39.6-18 2.9-16.1-29.8-35.5-73-43.3 -8.6-1.5-16.9-2.5-24.8-2.9 10 0.1 20.9 1.1 32.2 3.1 42.5 7.6 74.6 26.8 71.7 42.8C169.3 58.4 150.8 65.1 125.5 65.6"/>
</svg>
