<svg xmlns="http://www.w3.org/2000/svg" xmlns:xlink="http://www.w3.org/1999/xlink" viewBox="0 0 1120 420"><defs><style>.cls-1{fill:none;}.cls-2{clip-path:url(#clip-path);}.cls-3{fill:#fff;}</style><clipPath id="clip-path"><rect class="cls-1" x="26.49" y="8.8" width="1065.51" height="402.41"/></clipPath></defs><title>Artboard 1</title><g id="Layer_1" data-name="Layer 1"><g class="cls-2"><path class="cls-3" d="M230.41,323.5l-45.8-166.94h46.66s22.9,101.36,26.1,121.15h.52c3.2-21.17,28.86-121.15,28.86-121.15h46.49s22.9,98.51,25.66,119.94h.6c2.85-21.43,26.87-119.94,26.87-119.94H430.8L380.94,323.5H333.76s-20.91-100-25.49-122.44h-.52c-5.18,21.6-29.55,122.44-29.55,122.44H230.41"/></g><g class="cls-2"><rect class="cls-3" x="432.61" y="183.52" width="43.46" height="139.98"/></g><g class="cls-2"><polygon class="cls-3" points="495.17 156.56 538.64 156.56 538.64 286.86 615.37 286.86 615.37 323.5 495.17 323.5 495.17 156.56"/></g><g class="cls-2"><rect class="cls-3" x="621.33" y="183.52" width="43.46" height="139.98"/></g><g class="cls-2"><path class="cls-3" d="M682.94,228.19c0-17.45-.52-32.06-1-44.67h37.76l2,19.44h.86c5.79-9.16,19.79-22.64,43.29-22.64,28.52,0,50,19.18,50,60.4v82.69H772.37v-77.6c0-18.06-6.31-30.33-22-30.33-12,0-19.18,8.3-22.38,16.33-1.21,2.85-1.38,6.91-1.38,10.89v80.71H683l-.09-95.22"/></g><g class="cls-2"><path class="cls-3" d="M862.24,267.16c1.38,18.32,19.18,26.87,39.49,26.87,14.78,0,26.87-2,38.54-6l5.79,29.47c-14.26,6-31.71,8.81-50.64,8.81-47.61,0-74.83-27.48-74.83-71.55,0-35.51,22.38-74.74,70.77-74.74,45.19,0,62.47,35.25,62.47,69.82a105.44,105.44,0,0,1-1.47,17.45l-90.12-.17m51.24-29.81c0-10.28-4.58-28.34-24.37-28.34-18.58,0-26,16.94-27.22,28.34Z"/></g><g class="cls-2"><path class="cls-3" d="M79.8,202.7C94.06,101.77,322.61,50.45,590.48,88.12,672,99.61,747.75,118,813.33,140.83c-75.26-30.07-166.86-54.44-267.18-68.44C273.79,34.11,41.35,85.44,27.09,187c-11.41,81.48,121,170.49,314.18,222.33C177.36,356.94,69.52,276.75,79.8,202.7"/></g><g class="cls-2"><path class="cls-3" d="M804.26,411.2c138.6-8.81,236.33-49.17,247.82-113C1070.22,197.25,865.52,75.94,594.72,27.29A1277.94,1277.94,0,0,0,439.61,8.88C502,9.4,570.43,15.8,641.46,28.5c266.14,47.87,467.47,168,449.33,268.3C1078.35,366.53,962.9,408.35,804.26,411.2"/></g></g></svg>